<svg xmlns="http://www.w3.org/2000/svg" viewBox="0 0 1440 560" preserveAspectRatio="xMidYMax slice">
  <rect width="1440" height="560" fill="none"/>
  <g fill="#e9e9e9">
    <path d="M0 560V300l180-160 140 120 120-90 220 190 160-140 260 210 130-110 230 190v150Z"/>
  </g>
  <g fill="#e0e0e0">
    <path d="M0 560V400l120-80 100 70 90-60 150 110 110-80 170 130 120-90 180 130 140-100 160 120v110Z"/>
  </g>
  <g fill="#d6d6d6">
    <path d="M60 330l45-90 45 90Zm190 60 35-70 35 70Zm660-40 40-80 40 80Z"/>
    <path d="M1050 470h90v-18h-70v-18h50v-18h-34v-18h60l14 72h24l-20-96h-114Zm-780 20 100-60 12 20-100 60Z"/>
    <path d="M300 240c-4-26 10-44 24-44 4-12 22-12 26 0 12 2 18 14 14 26l-8 62h-40Zm18-58c-2-8 8-14 14-8 6-6 16 0 14 8Z"/>
  </g>
</svg>
